<?xml version="1.0" encoding="UTF-8" standalone="no"?>
<!DOCTYPE svg PUBLIC "-//W3C//DTD SVG 1.1//EN"
 "http://www.w3.org/Graphics/SVG/1.1/DTD/svg11.dtd">
<!-- Generated by graphviz version 2.40.1 (20161225.0304)
 -->
<!-- Title: dependencies Pages: 1 -->
<svg width="1176pt" height="284pt"
 viewBox="0.00 0.00 1176.00 284.00" xmlns="http://www.w3.org/2000/svg" xmlns:xlink="http://www.w3.org/1999/xlink">
<g id="graph0" class="graph" transform="scale(1 1) rotate(0) translate(4 280)">
<title>dependencies</title>
<polygon fill="#ffffff" stroke="transparent" points="-4,4 -4,-280 1172,-280 1172,4 -4,4"/>
<text text-anchor="start" x="563.0091" y="-42.4" font-family="sans-serif" font-weight="bold" font-size="14.00" fill="#000000">Legend</text>
<polygon fill="#ffffb3" stroke="transparent" points="350,-10 350,-30 370,-30 370,-10 350,-10"/>
<text text-anchor="start" x="373.629" y="-15.4" font-family="sans-serif" font-size="14.00" fill="#000000"> &#160;Declarations</text>
<polygon fill="#8dd3c7" stroke="transparent" points="463,-10 463,-30 483,-30 483,-10 463,-10"/>
<text text-anchor="start" x="486.7251" y="-15.4" font-family="sans-serif" font-size="14.00" fill="#000000"> &#160;Module</text>
<polygon fill="#80b1d3" stroke="transparent" points="549,-10 549,-30 569,-30 569,-10 549,-10"/>
<text text-anchor="start" x="572.7812" y="-15.4" font-family="sans-serif" font-size="14.00" fill="#000000"> &#160;Bootstrap</text>
<polygon fill="#fdb462" stroke="transparent" points="646,-10 646,-30 666,-30 666,-10 646,-10"/>
<text text-anchor="start" x="669.6732" y="-15.4" font-family="sans-serif" font-size="14.00" fill="#000000"> &#160;Providers</text>
<polygon fill="#fb8072" stroke="transparent" points="742,-10 742,-30 762,-30 762,-10 742,-10"/>
<text text-anchor="start" x="765.7258" y="-15.4" font-family="sans-serif" font-size="14.00" fill="#000000"> &#160;Exports</text>
<g id="clust1" class="cluster">
<title>cluster_AppModule</title>
<polygon fill="none" stroke="#000000" stroke-dasharray="1,5" points="8,-70 8,-268 1016,-268 1016,-70 8,-70"/>
</g>
<g id="clust2" class="cluster">
<title>cluster_AppModule_declarations</title>
<polygon fill="none" stroke="#000000" points="308,-78 308,-130 1008,-130 1008,-78 308,-78"/>
</g>
<g id="clust8" class="cluster">
<title>cluster_AppModule_imports</title>
<polygon fill="none" stroke="#000000" points="156,-78 156,-130 300,-130 300,-78 156,-78"/>
</g>
<g id="clust10" class="cluster">
<title>cluster_AppModule_bootstrap</title>
<polygon fill="none" stroke="#000000" points="750,-208 750,-260 874,-260 874,-208 750,-208"/>
</g>
<g id="clust11" class="cluster">
<title>cluster_AppModule_providers</title>
<polygon fill="none" stroke="#000000" points="16,-78 16,-130 148,-130 148,-78 16,-78"/>
</g>
<g id="clust18" class="cluster">
<title>cluster_AppServerModule</title>
<polygon fill="none" stroke="#000000" stroke-dasharray="1,5" points="1024,-208 1024,-260 1160,-260 1160,-208 1024,-208"/>
</g>
<!-- AddUserComponent -->
<g id="node1" class="node">
<title>AddUserComponent</title>
<polygon fill="#ffffb3" stroke="#000000" points="999.8655,-122 868.1345,-122 868.1345,-86 999.8655,-86 999.8655,-122"/>
<text text-anchor="middle" x="934" y="-99.8" font-family="Times,serif" font-size="14.00" fill="#000000">AddUserComponent</text>
</g>
<!-- AppModule -->
<g id="node6" class="node">
<title>AppModule</title>
<polygon fill="#8dd3c7" stroke="#000000" points="720.6571,-187 717.6571,-191 696.6571,-191 693.6571,-187 637.3429,-187 637.3429,-151 720.6571,-151 720.6571,-187"/>
<text text-anchor="middle" x="679" y="-164.8" font-family="Times,serif" font-size="14.00" fill="#000000">AppModule</text>
</g>
<!-- AddUserComponent&#45;&gt;AppModule -->
<g id="edge1" class="edge">
<title>AddUserComponent&#45;&gt;AppModule</title>
<path fill="none" stroke="#000000" d="M934,-122.1061C934,-141.3391 934,-169 934,-169 934,-169 730.8225,-169 730.8225,-169"/>
<polygon fill="#000000" stroke="#000000" points="730.8226,-165.5001 720.8225,-169 730.8225,-172.5001 730.8226,-165.5001"/>
</g>
<!-- AppComponent -->
<g id="node2" class="node">
<title>AppComponent</title>
<polygon fill="#ffffb3" stroke="#000000" points="849.9399,-122 744.0601,-122 744.0601,-86 849.9399,-86 849.9399,-122"/>
<text text-anchor="middle" x="797" y="-99.8" font-family="Times,serif" font-size="14.00" fill="#000000">AppComponent</text>
</g>
<!-- AppComponent&#45;&gt;AppModule -->
<g id="edge2" class="edge">
<title>AppComponent&#45;&gt;AppModule</title>
<path fill="none" stroke="#000000" d="M750.9055,-122.027C750.9055,-138.3976 750.9055,-160 750.9055,-160 750.9055,-160 730.8277,-160 730.8277,-160"/>
<polygon fill="#000000" stroke="#000000" points="730.8278,-156.5001 720.8277,-160 730.8277,-163.5001 730.8278,-156.5001"/>
</g>
<!-- DateDirective -->
<g id="node3" class="node">
<title>DateDirective</title>
<polygon fill="#ffffb3" stroke="#000000" points="726.0105,-122 631.9895,-122 631.9895,-86 726.0105,-86 726.0105,-122"/>
<text text-anchor="middle" x="679" y="-99.8" font-family="Times,serif" font-size="14.00" fill="#000000">DateDirective</text>
</g>
<!-- DateDirective&#45;&gt;AppModule -->
<g id="edge3" class="edge">
<title>DateDirective&#45;&gt;AppModule</title>
<path fill="none" stroke="#000000" d="M679,-122.1061C679,-122.1061 679,-140.991 679,-140.991"/>
<polygon fill="#000000" stroke="#000000" points="675.5001,-140.9909 679,-150.991 682.5001,-140.991 675.5001,-140.9909"/>
</g>
<!-- MainNavComponent -->
<g id="node4" class="node">
<title>MainNavComponent</title>
<polygon fill="#ffffb3" stroke="#000000" points="614.2036,-122 479.7964,-122 479.7964,-86 614.2036,-86 614.2036,-122"/>
<text text-anchor="middle" x="547" y="-99.8" font-family="Times,serif" font-size="14.00" fill="#000000">MainNavComponent</text>
</g>
<!-- MainNavComponent&#45;&gt;AppModule -->
<g id="edge4" class="edge">
<title>MainNavComponent&#45;&gt;AppModule</title>
<path fill="none" stroke="#000000" d="M547,-122.0091C547,-138.0494 547,-159 547,-159 547,-159 627.2344,-159 627.2344,-159"/>
<polygon fill="#000000" stroke="#000000" points="627.2344,-162.5001 637.2344,-159 627.2343,-155.5001 627.2344,-162.5001"/>
</g>
<!-- UsersTableComponent -->
<g id="node5" class="node">
<title>UsersTableComponent</title>
<polygon fill="#ffffb3" stroke="#000000" points="461.5758,-122 316.4242,-122 316.4242,-86 461.5758,-86 461.5758,-122"/>
<text text-anchor="middle" x="389" y="-99.8" font-family="Times,serif" font-size="14.00" fill="#000000">UsersTableComponent</text>
</g>
<!-- UsersTableComponent&#45;&gt;AppModule -->
<g id="edge5" class="edge">
<title>UsersTableComponent&#45;&gt;AppModule</title>
<path fill="none" stroke="#000000" d="M389,-122.2667C389,-140.5552 389,-166 389,-166 389,-166 627.1412,-166 627.1412,-166"/>
<polygon fill="#000000" stroke="#000000" points="627.1413,-169.5001 637.1412,-166 627.1412,-162.5001 627.1413,-169.5001"/>
</g>
<!-- AppComponent  -->
<g id="node8" class="node">
<title>AppComponent </title>
<polygon fill="#80b1d3" stroke="#000000" points="866.439,-252 757.561,-252 757.561,-216 866.439,-216 866.439,-252"/>
<text text-anchor="middle" x="812" y="-229.8" font-family="Times,serif" font-size="14.00" fill="#000000">AppComponent </text>
</g>
<!-- AppModule&#45;&gt;AppComponent  -->
<g id="edge7" class="edge">
<title>AppModule&#45;&gt;AppComponent </title>
<path fill="none" stroke="#000000" stroke-dasharray="1,5" d="M679,-187.1061C679,-206.3391 679,-234 679,-234 679,-234 747.5201,-234 747.5201,-234"/>
<polygon fill="#000000" stroke="#000000" points="747.5201,-237.5001 757.5201,-234 747.52,-230.5001 747.5201,-237.5001"/>
</g>
<!-- AppServerModule -->
<g id="node10" class="node">
<title>AppServerModule</title>
<polygon fill="#8dd3c7" stroke="#000000" points="1152.1895,-252 1149.1895,-256 1128.1895,-256 1125.1895,-252 1031.8105,-252 1031.8105,-216 1152.1895,-216 1152.1895,-252"/>
<text text-anchor="middle" x="1092" y="-229.8" font-family="Times,serif" font-size="14.00" fill="#000000">AppServerModule</text>
</g>
<!-- AppModule&#45;&gt;AppServerModule -->
<g id="edge9" class="edge">
<title>AppModule&#45;&gt;AppServerModule</title>
<path fill="none" stroke="#000000" d="M720.8735,-178C825.87,-178 1092,-178 1092,-178 1092,-178 1092,-205.973 1092,-205.973"/>
<polygon fill="#000000" stroke="#000000" points="1088.5001,-205.973 1092,-215.973 1095.5001,-205.973 1088.5001,-205.973"/>
</g>
<!-- AppRoutingModule -->
<g id="node7" class="node">
<title>AppRoutingModule</title>
<polygon fill="#8dd3c7" stroke="#000000" points="292.2744,-122 289.2744,-126 268.2744,-126 265.2744,-122 163.7256,-122 163.7256,-86 292.2744,-86 292.2744,-122"/>
<text text-anchor="middle" x="228" y="-99.8" font-family="Times,serif" font-size="14.00" fill="#000000">AppRoutingModule</text>
</g>
<!-- AppRoutingModule&#45;&gt;AppModule -->
<g id="edge6" class="edge">
<title>AppRoutingModule&#45;&gt;AppModule</title>
<path fill="none" stroke="#000000" d="M228,-122.1289C228,-142.5724 228,-173 228,-173 228,-173 626.976,-173 626.976,-173"/>
<polygon fill="#000000" stroke="#000000" points="626.976,-176.5001 636.976,-173 626.976,-169.5001 626.976,-176.5001"/>
</g>
<!-- UserService -->
<g id="node9" class="node">
<title>UserService</title>
<ellipse fill="#fdb462" stroke="#000000" cx="82" cy="-104" rx="58.4415" ry="18"/>
<text text-anchor="middle" x="82" y="-99.8" font-family="Times,serif" font-size="14.00" fill="#000000">UserService</text>
</g>
<!-- UserService&#45;&gt;AppModule -->
<g id="edge8" class="edge">
<title>UserService&#45;&gt;AppModule</title>
<path fill="none" stroke="#000000" d="M82,-122.0109C82,-144.4852 82,-180 82,-180 82,-180 627.0201,-180 627.0201,-180"/>
<polygon fill="#000000" stroke="#000000" points="627.0202,-183.5001 637.0201,-180 627.0201,-176.5001 627.0202,-183.5001"/>
</g>
<!-- AppServerModule&#45;&gt;AppComponent  -->
<g id="edge10" class="edge">
<title>AppServerModule&#45;&gt;AppComponent </title>
<path fill="none" stroke="#000000" stroke-dasharray="1,5" d="M1031.5889,-234C1031.5889,-234 876.6118,-234 876.6118,-234"/>
<polygon fill="#000000" stroke="#000000" points="876.6119,-230.5001 866.6118,-234 876.6118,-237.5001 876.6119,-230.5001"/>
</g>
</g>
</svg>
