<?xml version="1.0" encoding="UTF-8" standalone="no"?>
<!DOCTYPE svg PUBLIC "-//W3C//DTD SVG 1.1//EN"
 "http://www.w3.org/Graphics/SVG/1.1/DTD/svg11.dtd">
<!-- Generated by graphviz version 2.40.1 (20161225.0304)
 -->
<!-- Title: dependencies Pages: 1 -->
<svg width="1032pt" height="284pt"
 viewBox="0.00 0.00 1032.00 284.00" xmlns="http://www.w3.org/2000/svg" xmlns:xlink="http://www.w3.org/1999/xlink">
<g id="graph0" class="graph" transform="scale(1 1) rotate(0) translate(4 280)">
<title>dependencies</title>
<polygon fill="#ffffff" stroke="transparent" points="-4,4 -4,-280 1028,-280 1028,4 -4,4"/>
<text text-anchor="start" x="491.0091" y="-42.4" font-family="sans-serif" font-weight="bold" font-size="14.00" fill="#000000">Legend</text>
<polygon fill="#ffffb3" stroke="transparent" points="278,-10 278,-30 298,-30 298,-10 278,-10"/>
<text text-anchor="start" x="301.629" y="-15.4" font-family="sans-serif" font-size="14.00" fill="#000000"> &#160;Declarations</text>
<polygon fill="#8dd3c7" stroke="transparent" points="391,-10 391,-30 411,-30 411,-10 391,-10"/>
<text text-anchor="start" x="414.7251" y="-15.4" font-family="sans-serif" font-size="14.00" fill="#000000"> &#160;Module</text>
<polygon fill="#80b1d3" stroke="transparent" points="477,-10 477,-30 497,-30 497,-10 477,-10"/>
<text text-anchor="start" x="500.7812" y="-15.4" font-family="sans-serif" font-size="14.00" fill="#000000"> &#160;Bootstrap</text>
<polygon fill="#fdb462" stroke="transparent" points="574,-10 574,-30 594,-30 594,-10 574,-10"/>
<text text-anchor="start" x="597.6732" y="-15.4" font-family="sans-serif" font-size="14.00" fill="#000000"> &#160;Providers</text>
<polygon fill="#fb8072" stroke="transparent" points="670,-10 670,-30 690,-30 690,-10 670,-10"/>
<text text-anchor="start" x="693.7258" y="-15.4" font-family="sans-serif" font-size="14.00" fill="#000000"> &#160;Exports</text>
<g id="clust1" class="cluster">
<title>cluster_AppModule</title>
<polygon fill="none" stroke="#000000" stroke-dasharray="1,5" points="8,-70 8,-268 1016,-268 1016,-70 8,-70"/>
</g>
<g id="clust2" class="cluster">
<title>cluster_AppModule_declarations</title>
<polygon fill="none" stroke="#000000" points="308,-78 308,-130 1008,-130 1008,-78 308,-78"/>
</g>
<g id="clust8" class="cluster">
<title>cluster_AppModule_imports</title>
<polygon fill="none" stroke="#000000" points="156,-78 156,-130 300,-130 300,-78 156,-78"/>
</g>
<g id="clust10" class="cluster">
<title>cluster_AppModule_bootstrap</title>
<polygon fill="none" stroke="#000000" points="485,-208 485,-260 609,-260 609,-208 485,-208"/>
</g>
<g id="clust11" class="cluster">
<title>cluster_AppModule_providers</title>
<polygon fill="none" stroke="#000000" points="16,-78 16,-130 148,-130 148,-78 16,-78"/>
</g>
<!-- AddUserComponent -->
<g id="node1" class="node">
<title>AddUserComponent</title>
<polygon fill="#ffffb3" stroke="#000000" points="999.8655,-122 868.1345,-122 868.1345,-86 999.8655,-86 999.8655,-122"/>
<text text-anchor="middle" x="934" y="-99.8" font-family="Times,serif" font-size="14.00" fill="#000000">AddUserComponent</text>
</g>
<!-- AppModule -->
<g id="node6" class="node">
<title>AppModule</title>
<polygon fill="#8dd3c7" stroke="#000000" points="588.6571,-187 585.6571,-191 564.6571,-191 561.6571,-187 505.3429,-187 505.3429,-151 588.6571,-151 588.6571,-187"/>
<text text-anchor="middle" x="547" y="-164.8" font-family="Times,serif" font-size="14.00" fill="#000000">AppModule</text>
</g>
<!-- AddUserComponent&#45;&gt;AppModule -->
<g id="edge1" class="edge">
<title>AddUserComponent&#45;&gt;AppModule</title>
<path fill="none" stroke="#000000" d="M934,-122.2921C934,-144.2057 934,-178 934,-178 934,-178 598.7835,-178 598.7835,-178"/>
<polygon fill="#000000" stroke="#000000" points="598.7835,-174.5001 588.7835,-178 598.7834,-181.5001 598.7835,-174.5001"/>
</g>
<!-- AppComponent -->
<g id="node2" class="node">
<title>AppComponent</title>
<polygon fill="#ffffb3" stroke="#000000" points="849.9399,-122 744.0601,-122 744.0601,-86 849.9399,-86 849.9399,-122"/>
<text text-anchor="middle" x="797" y="-99.8" font-family="Times,serif" font-size="14.00" fill="#000000">AppComponent</text>
</g>
<!-- AppComponent&#45;&gt;AppModule -->
<g id="edge2" class="edge">
<title>AppComponent&#45;&gt;AppModule</title>
<path fill="none" stroke="#000000" d="M797,-122.1061C797,-141.3391 797,-169 797,-169 797,-169 598.8444,-169 598.8444,-169"/>
<polygon fill="#000000" stroke="#000000" points="598.8444,-165.5001 588.8444,-169 598.8443,-172.5001 598.8444,-165.5001"/>
</g>
<!-- DateDirective -->
<g id="node3" class="node">
<title>DateDirective</title>
<polygon fill="#ffffb3" stroke="#000000" points="726.0105,-122 631.9895,-122 631.9895,-86 726.0105,-86 726.0105,-122"/>
<text text-anchor="middle" x="679" y="-99.8" font-family="Times,serif" font-size="14.00" fill="#000000">DateDirective</text>
</g>
<!-- DateDirective&#45;&gt;AppModule -->
<g id="edge3" class="edge">
<title>DateDirective&#45;&gt;AppModule</title>
<path fill="none" stroke="#000000" d="M679,-122.027C679,-138.3976 679,-160 679,-160 679,-160 598.7656,-160 598.7656,-160"/>
<polygon fill="#000000" stroke="#000000" points="598.7657,-156.5001 588.7656,-160 598.7656,-163.5001 598.7657,-156.5001"/>
</g>
<!-- MainNavComponent -->
<g id="node4" class="node">
<title>MainNavComponent</title>
<polygon fill="#ffffb3" stroke="#000000" points="614.2036,-122 479.7964,-122 479.7964,-86 614.2036,-86 614.2036,-122"/>
<text text-anchor="middle" x="547" y="-99.8" font-family="Times,serif" font-size="14.00" fill="#000000">MainNavComponent</text>
</g>
<!-- MainNavComponent&#45;&gt;AppModule -->
<g id="edge4" class="edge">
<title>MainNavComponent&#45;&gt;AppModule</title>
<path fill="none" stroke="#000000" d="M547,-122.1061C547,-122.1061 547,-140.991 547,-140.991"/>
<polygon fill="#000000" stroke="#000000" points="543.5001,-140.9909 547,-150.991 550.5001,-140.991 543.5001,-140.9909"/>
</g>
<!-- UsersTableComponent -->
<g id="node5" class="node">
<title>UsersTableComponent</title>
<polygon fill="#ffffb3" stroke="#000000" points="461.5758,-122 316.4242,-122 316.4242,-86 461.5758,-86 461.5758,-122"/>
<text text-anchor="middle" x="389" y="-99.8" font-family="Times,serif" font-size="14.00" fill="#000000">UsersTableComponent</text>
</g>
<!-- UsersTableComponent&#45;&gt;AppModule -->
<g id="edge5" class="edge">
<title>UsersTableComponent&#45;&gt;AppModule</title>
<path fill="none" stroke="#000000" d="M389,-122.027C389,-138.3976 389,-160 389,-160 389,-160 495.0737,-160 495.0737,-160"/>
<polygon fill="#000000" stroke="#000000" points="495.0738,-163.5001 505.0737,-160 495.0737,-156.5001 495.0738,-163.5001"/>
</g>
<!-- AppComponent  -->
<g id="node8" class="node">
<title>AppComponent </title>
<polygon fill="#80b1d3" stroke="#000000" points="601.439,-252 492.561,-252 492.561,-216 601.439,-216 601.439,-252"/>
<text text-anchor="middle" x="547" y="-229.8" font-family="Times,serif" font-size="14.00" fill="#000000">AppComponent </text>
</g>
<!-- AppModule&#45;&gt;AppComponent  -->
<g id="edge7" class="edge">
<title>AppModule&#45;&gt;AppComponent </title>
<path fill="none" stroke="#000000" stroke-dasharray="1,5" d="M547,-187.1061C547,-187.1061 547,-205.991 547,-205.991"/>
<polygon fill="#000000" stroke="#000000" points="543.5001,-205.9909 547,-215.991 550.5001,-205.991 543.5001,-205.9909"/>
</g>
<!-- AppRoutingModule -->
<g id="node7" class="node">
<title>AppRoutingModule</title>
<polygon fill="#8dd3c7" stroke="#000000" points="292.2744,-122 289.2744,-126 268.2744,-126 265.2744,-122 163.7256,-122 163.7256,-86 292.2744,-86 292.2744,-122"/>
<text text-anchor="middle" x="228" y="-99.8" font-family="Times,serif" font-size="14.00" fill="#000000">AppRoutingModule</text>
</g>
<!-- AppRoutingModule&#45;&gt;AppModule -->
<g id="edge6" class="edge">
<title>AppRoutingModule&#45;&gt;AppModule</title>
<path fill="none" stroke="#000000" d="M228,-122.1061C228,-141.3391 228,-169 228,-169 228,-169 495.2963,-169 495.2963,-169"/>
<polygon fill="#000000" stroke="#000000" points="495.2964,-172.5001 505.2963,-169 495.2963,-165.5001 495.2964,-172.5001"/>
</g>
<!-- UserService -->
<g id="node9" class="node">
<title>UserService</title>
<ellipse fill="#fdb462" stroke="#000000" cx="82" cy="-104" rx="58.4415" ry="18"/>
<text text-anchor="middle" x="82" y="-99.8" font-family="Times,serif" font-size="14.00" fill="#000000">UserService</text>
</g>
<!-- UserService&#45;&gt;AppModule -->
<g id="edge8" class="edge">
<title>UserService&#45;&gt;AppModule</title>
<path fill="none" stroke="#000000" d="M82,-122.2921C82,-144.2057 82,-178 82,-178 82,-178 495.3251,-178 495.3251,-178"/>
<polygon fill="#000000" stroke="#000000" points="495.3252,-181.5001 505.3251,-178 495.3251,-174.5001 495.3252,-181.5001"/>
</g>
</g>
</svg>
